<?xml version="1.0" standalone="no"?>
<!DOCTYPE svg PUBLIC "-//W3C//DTD SVG 20010904//EN"
 "http://www.w3.org/TR/2001/REC-SVG-20010904/DTD/svg10.dtd">
<svg version="1.0" xmlns="http://www.w3.org/2000/svg"
 width="758.000000pt" height="676.000000pt" viewBox="0 0 758.000000 676.000000"
 preserveAspectRatio="xMidYMid meet">

<g transform="translate(0.000000,676.000000) scale(0.100000,-0.100000)"
fill="#000000" stroke="none">
<path d="M3035 5781 c-190 -56 -317 -186 -366 -374 -24 -91 -24 -144 0 -232
36 -133 79 -204 175 -281 107 -87 205 -118 345 -112 138 7 235 48 332 143 101
98 149 215 149 363 0 142 -37 242 -126 341 -128 143 -333 204 -509 152z m282
-118 c77 -30 173 -117 210 -189 77 -149 45 -351 -74 -470 -212 -213 -558 -136
-669 148 -23 58 -26 77 -22 155 3 73 10 99 35 153 48 99 137 179 241 216 21 7
76 13 124 14 72 0 100 -5 155 -27z"/>
<path d="M1790 4510 c-214 -39 -383 -219 -410 -436 -45 -359 273 -643 627
-560 251 58 424 320 379 574 -33 185 -140 320 -308 390 -81 34 -206 48 -288
32z m170 -105 c83 -17 129 -40 188 -90 230 -199 171 -558 -113 -686 -41 -19
-69 -23 -150 -23 -97 -1 -103 0 -178 38 -54 27 -91 54 -121 88 -153 175 -144
415 22 570 60 56 116 86 196 103 79 17 73 17 156 0z"/>
<path d="M4345 4510 c-262 -54 -440 -304 -405 -570 10 -82 30 -135 73 -203 84
-130 191 -202 352 -233 76 -15 88 -15 166 1 102 20 157 44 231 101 91 71 148
159 179 279 24 91 24 163 -1 252 -42 153 -133 263 -274 332 -99 48 -215 62
-321 41z m232 -131 c161 -58 273 -208 273 -367 0 -200 -146 -368 -351 -404
-52 -9 -75 -8 -136 7 -184 43 -313 206 -313 395 0 274 269 462 527 369z"/>
<path d="M3049 3225 c-191 -47 -339 -195 -384 -386 -20 -85 -19 -149 4 -235
45 -174 161 -301 330 -360 93 -33 239 -33 332 0 159 56 270 171 325 336 27 83
25 227 -6 311 -92 252 -349 395 -601 334z m286 -141 c86 -40 173 -131 205
-214 20 -53 25 -82 24 -151 -1 -74 -5 -96 -32 -152 -80 -171 -245 -262 -430
-236 -126 18 -229 95 -289 217 -37 73 -38 79 -38 181 0 94 4 112 27 161 48
101 125 172 229 210 81 31 222 23 304 -16z"/>
<path d="M4329 3225 c-206 -50 -363 -223 -389 -427 -31 -252 103 -471 340
-555 92 -32 238 -32 331 1 171 60 290 191 333 367 21 87 20 159 -4 246 -74
268 -346 432 -611 368z m281 -138 c184 -83 279 -284 222 -472 -60 -196 -245
-312 -450 -284 -277 39 -423 372 -269 616 45 71 124 128 227 164 14 5 68 7
120 5 75 -3 107 -9 150 -29z"/>
<path d="M4315 1941 c-143 -42 -261 -138 -322 -261 -41 -83 -52 -136 -53 -236
-1 -333 319 -574 641 -484 170 47 303 179 353 349 23 78 21 213 -4 293 -79
257 -363 413 -615 339z m219 -96 c124 -26 224 -107 280 -225 42 -88 48 -208
17 -302 -116 -344 -598 -370 -754 -41 -30 63 -32 76 -32 173 0 99 2 109 33
173 59 118 154 194 282 223 73 16 93 16 174 -1z"/>
<path d="M5595 1941 c-178 -51 -314 -188 -361 -366 -18 -65 -17 -186 1 -254
73 -274 358 -439 628 -361 287 81 443 392 338 670 -92 242 -363 381 -606 311z
m276 -110 c268 -102 350 -447 156 -656 -198 -213 -546 -159 -671 104 -29 61
-31 74 -31 171 0 98 2 110 32 170 94 193 319 285 514 211z"/>
</g>
</svg>
